<?xml version="1.0" encoding="UTF-8" standalone="no"?>
<!-- Created with Inkscape (http://www.inkscape.org/) -->

<svg
   width="105.76069mm"
   height="105.48461mm"
   viewBox="0 0 105.76069 105.48461"
   version="1.1"
   id="svg5"
   xml:space="preserve"
   inkscape:export-filename="moose-logo.svg"
   inkscape:export-xdpi="96"
   inkscape:export-ydpi="96"
   xmlns:inkscape="http://www.inkscape.org/namespaces/inkscape"
   xmlns:sodipodi="http://sodipodi.sourceforge.net/DTD/sodipodi-0.dtd"
   xmlns="http://www.w3.org/2000/svg"
   xmlns:svg="http://www.w3.org/2000/svg"><sodipodi:namedview
     id="namedview7"
     pagecolor="#ffffff"
     bordercolor="#000000"
     borderopacity="0.25"
     inkscape:showpageshadow="2"
     inkscape:pageopacity="0.0"
     inkscape:pagecheckerboard="0"
     inkscape:deskcolor="#d1d1d1"
     inkscape:document-units="mm"
     showgrid="false" /><defs
     id="defs2" /><g
     inkscape:label="Calque 1"
     inkscape:groupmode="layer"
     id="layer1"
     transform="translate(-49.611875,-62.169909)"><path
       style="fill:#027bd1;stroke:none;stroke-width:0.264583"
       d="m 65.421534,152.57326 c 0,-12.74975 -1.970246,-28.28026 4.315196,-39.95209 4.138216,-7.68456 13.568522,-11.52366 20.245019,-4.22936 4.53681,4.95643 6.01213,12.3145 6.70454,18.78144 1.42425,13.30299 0.48525,27.0989 0.48525,40.48126 h 10.583331 c 0,-13.38236 -0.93901,-27.17827 0.48525,-40.48126 0.69241,-6.46694 2.16773,-13.82501 6.70454,-18.78144 6.6765,-7.2943 16.10677,-3.4552 20.24512,4.22936 6.28545,11.67183 4.31509,27.20234 4.31509,39.95209 2.40718,-1.69545 4.18016,-4.27329 5.91873,-6.61459 5.88328,-7.92321 8.79687,-17.27597 9.73667,-26.9875 0.92763,-9.58771 -1.23322,-19.461165 -5.53588,-28.045835 C 145.69771,83.091176 139.73294,76.529641 132.62571,71.459272 110.5367,55.700634 78.153814,60.574807 61.307025,81.664913 48.548974,97.636225 45.875174,120.18085 55.037458,138.55034 c 2.441787,4.89558 5.835042,10.81855 10.384076,14.02292 z"
       id="path179" /></g></svg>
